<mxfile host="65bd71144e">
    <diagram id="d7-BFE9lQv_RqXNF4N2Z" name="Page-1">
        <mxGraphModel dx="625" dy="480" grid="1" gridSize="10" guides="1" tooltips="1" connect="1" arrows="1" fold="1" page="1" pageScale="1" pageWidth="827" pageHeight="1169" math="0" shadow="0">
            <root>
                <mxCell id="0"/>
                <mxCell id="1" parent="0"/>
                <mxCell id="17" value="Tournage" style="swimlane;fontStyle=0;childLayout=stackLayout;horizontal=1;startSize=30;horizontalStack=0;resizeParent=1;resizeParentMax=0;resizeLast=0;collapsible=1;marginBottom=0;whiteSpace=wrap;html=1;fillColor=#a4916a;" parent="1" vertex="1">
                    <mxGeometry x="10" y="410" width="140" height="160" as="geometry"/>
                </mxCell>
                <mxCell id="19" value="dateDeDebut : DATE" style="text;strokeColor=none;fillColor=none;align=left;verticalAlign=middle;spacingLeft=4;spacingRight=4;overflow=hidden;points=[[0,0.5],[1,0.5]];portConstraint=eastwest;rotatable=0;whiteSpace=wrap;html=1;" parent="17" vertex="1">
                    <mxGeometry y="30" width="140" height="30" as="geometry"/>
                </mxCell>
                <mxCell id="20" value="datDeFin : DATE" style="text;strokeColor=none;fillColor=none;align=left;verticalAlign=middle;spacingLeft=4;spacingRight=4;overflow=hidden;points=[[0,0.5],[1,0.5]];portConstraint=eastwest;rotatable=0;whiteSpace=wrap;html=1;" parent="17" vertex="1">
                    <mxGeometry y="60" width="140" height="30" as="geometry"/>
                </mxCell>
                <mxCell id="93" value="" style="line;strokeWidth=2;html=1;" parent="17" vertex="1">
                    <mxGeometry y="90" width="140" height="10" as="geometry"/>
                </mxCell>
                <mxCell id="91" value="determinerAnneeDeTournage : date" style="text;strokeColor=none;fillColor=none;align=left;verticalAlign=middle;spacingLeft=4;spacingRight=4;overflow=hidden;points=[[0,0.5],[1,0.5]];portConstraint=eastwest;rotatable=0;whiteSpace=wrap;html=1;" parent="17" vertex="1">
                    <mxGeometry y="100" width="140" height="30" as="geometry"/>
                </mxCell>
                <mxCell id="132" value="dateDeDebut : DATE" style="text;strokeColor=none;fillColor=none;align=left;verticalAlign=middle;spacingLeft=4;spacingRight=4;overflow=hidden;points=[[0,0.5],[1,0.5]];portConstraint=eastwest;rotatable=0;whiteSpace=wrap;html=1;" parent="17" vertex="1">
                    <mxGeometry y="130" width="140" height="30" as="geometry"/>
                </mxCell>
                <mxCell id="21" value="Oeuvre" style="swimlane;fontStyle=0;childLayout=stackLayout;horizontal=1;startSize=30;horizontalStack=0;resizeParent=1;resizeParentMax=0;resizeLast=0;collapsible=1;marginBottom=0;whiteSpace=wrap;html=1;fillColor=#a0522d;fontColor=#ffffff;strokeColor=#6D1F00;" parent="1" vertex="1">
                    <mxGeometry x="355" y="200" width="140" height="120" as="geometry"/>
                </mxCell>
                <mxCell id="22" value="id_oeuvre : INTEGER" style="text;strokeColor=none;fillColor=none;align=left;verticalAlign=middle;spacingLeft=4;spacingRight=4;overflow=hidden;points=[[0,0.5],[1,0.5]];portConstraint=eastwest;rotatable=0;whiteSpace=wrap;html=1;" parent="21" vertex="1">
                    <mxGeometry y="30" width="140" height="30" as="geometry"/>
                </mxCell>
                <mxCell id="90" value="titre : VARCHAR" style="text;strokeColor=none;fillColor=none;align=left;verticalAlign=middle;spacingLeft=4;spacingRight=4;overflow=hidden;points=[[0,0.5],[1,0.5]];portConstraint=eastwest;rotatable=0;whiteSpace=wrap;html=1;" parent="21" vertex="1">
                    <mxGeometry y="60" width="140" height="30" as="geometry"/>
                </mxCell>
                <mxCell id="129" value="typeDeTournage : VARCHAR" style="text;strokeColor=none;fillColor=none;align=left;verticalAlign=middle;spacingLeft=4;spacingRight=4;overflow=hidden;points=[[0,0.5],[1,0.5]];portConstraint=eastwest;rotatable=0;whiteSpace=wrap;html=1;" parent="21" vertex="1">
                    <mxGeometry y="90" width="140" height="30" as="geometry"/>
                </mxCell>
                <mxCell id="29" value="Réalisateur_ice" style="swimlane;fontStyle=0;childLayout=stackLayout;horizontal=1;startSize=30;horizontalStack=0;resizeParent=1;resizeParentMax=0;resizeLast=0;collapsible=1;marginBottom=0;whiteSpace=wrap;html=1;fillColor=#0050ef;strokeColor=#001DBC;fontColor=#ffffff;" parent="1" vertex="1">
                    <mxGeometry x="645" y="480" width="140" height="90" as="geometry"/>
                </mxCell>
                <mxCell id="127" value="id_realisateur : INTEGER" style="text;strokeColor=none;fillColor=none;align=left;verticalAlign=middle;spacingLeft=4;spacingRight=4;overflow=hidden;points=[[0,0.5],[1,0.5]];portConstraint=eastwest;rotatable=0;whiteSpace=wrap;html=1;" parent="29" vertex="1">
                    <mxGeometry y="30" width="140" height="30" as="geometry"/>
                </mxCell>
                <mxCell id="30" value="nom : VARCHAR" style="text;strokeColor=none;fillColor=none;align=left;verticalAlign=middle;spacingLeft=4;spacingRight=4;overflow=hidden;points=[[0,0.5],[1,0.5]];portConstraint=eastwest;rotatable=0;whiteSpace=wrap;html=1;" parent="29" vertex="1">
                    <mxGeometry y="60" width="140" height="30" as="geometry"/>
                </mxCell>
                <mxCell id="33" value="SociétéDeProduction" style="swimlane;fontStyle=0;childLayout=stackLayout;horizontal=1;startSize=30;horizontalStack=0;resizeParent=1;resizeParentMax=0;resizeLast=0;collapsible=1;marginBottom=0;whiteSpace=wrap;html=1;fillColor=#6d8764;fontColor=#ffffff;strokeColor=#3A5431;" parent="1" vertex="1">
                    <mxGeometry x="645" y="80" width="140" height="90" as="geometry"/>
                </mxCell>
                <mxCell id="34" value="id_societeDeProdcution:&lt;br&gt;INTEGER&lt;br&gt;" style="text;strokeColor=none;fillColor=none;align=left;verticalAlign=middle;spacingLeft=4;spacingRight=4;overflow=hidden;points=[[0,0.5],[1,0.5]];portConstraint=eastwest;rotatable=0;whiteSpace=wrap;html=1;" parent="33" vertex="1">
                    <mxGeometry y="30" width="140" height="30" as="geometry"/>
                </mxCell>
                <mxCell id="128" value="nom : VARCHAR" style="text;strokeColor=none;fillColor=none;align=left;verticalAlign=middle;spacingLeft=4;spacingRight=4;overflow=hidden;points=[[0,0.5],[1,0.5]];portConstraint=eastwest;rotatable=0;whiteSpace=wrap;html=1;" parent="33" vertex="1">
                    <mxGeometry y="60" width="140" height="30" as="geometry"/>
                </mxCell>
                <mxCell id="37" value="Lieu" style="swimlane;fontStyle=0;childLayout=stackLayout;horizontal=1;startSize=30;horizontalStack=0;resizeParent=1;resizeParentMax=0;resizeLast=0;collapsible=1;marginBottom=0;whiteSpace=wrap;html=1;fillColor=#76608a;fontColor=#ffffff;strokeColor=#432D57;" parent="1" vertex="1">
                    <mxGeometry x="10" y="165" width="140" height="150" as="geometry"/>
                </mxCell>
                <mxCell id="38" value="localisationDeLaScene : VARCHAR" style="text;strokeColor=none;fillColor=none;align=left;verticalAlign=middle;spacingLeft=4;spacingRight=4;overflow=hidden;points=[[0,0.5],[1,0.5]];portConstraint=eastwest;rotatable=0;whiteSpace=wrap;html=1;" parent="37" vertex="1">
                    <mxGeometry y="30" width="140" height="30" as="geometry"/>
                </mxCell>
                <mxCell id="39" value="CodePostal : INTEGER" style="text;strokeColor=none;fillColor=none;align=left;verticalAlign=middle;spacingLeft=4;spacingRight=4;overflow=hidden;points=[[0,0.5],[1,0.5]];portConstraint=eastwest;rotatable=0;whiteSpace=wrap;html=1;" parent="37" vertex="1">
                    <mxGeometry y="60" width="140" height="30" as="geometry"/>
                </mxCell>
                <mxCell id="40" value="longitude :&amp;nbsp; FLOAT" style="text;strokeColor=none;fillColor=none;align=left;verticalAlign=middle;spacingLeft=4;spacingRight=4;overflow=hidden;points=[[0,0.5],[1,0.5]];portConstraint=eastwest;rotatable=0;whiteSpace=wrap;html=1;" parent="37" vertex="1">
                    <mxGeometry y="90" width="140" height="30" as="geometry"/>
                </mxCell>
                <mxCell id="41" value="latitude : FLOAT" style="text;strokeColor=none;fillColor=none;align=left;verticalAlign=middle;spacingLeft=4;spacingRight=4;overflow=hidden;points=[[0,0.5],[1,0.5]];portConstraint=eastwest;rotatable=0;whiteSpace=wrap;html=1;" parent="37" vertex="1">
                    <mxGeometry y="120" width="140" height="30" as="geometry"/>
                </mxCell>
                <mxCell id="44" value="&lt;font style=&quot;font-size: 18px;&quot;&gt;&lt;b style=&quot;&quot;&gt;Realiser&amp;nbsp;&lt;/b&gt;&lt;/font&gt;" style="endArrow=classic;html=1;fillColor=none;entryX=0;entryY=0;entryDx=0;entryDy=0;exitX=0.993;exitY=1.067;exitDx=0;exitDy=0;exitPerimeter=0;" parent="1" source="90" target="29" edge="1">
                    <mxGeometry x="0.1113" y="-3" relative="1" as="geometry">
                        <mxPoint x="460" y="290" as="sourcePoint"/>
                        <mxPoint x="640" y="370" as="targetPoint"/>
                        <mxPoint y="-1" as="offset"/>
                    </mxGeometry>
                </mxCell>
                <mxCell id="67" value="&lt;font style=&quot;font-size: 18px;&quot;&gt;&lt;b&gt;Produire&lt;/b&gt;&lt;/font&gt;" style="text;html=1;align=center;verticalAlign=middle;resizable=0;points=[];autosize=1;strokeColor=none;fillColor=none;fontSize=14;rotation=-30;" parent="1" vertex="1">
                    <mxGeometry x="510" y="135" width="100" height="40" as="geometry"/>
                </mxCell>
                <mxCell id="77" value="" style="endArrow=classic;html=1;fontSize=18;exitX=0.643;exitY=1.133;exitDx=0;exitDy=0;exitPerimeter=0;" parent="1" source="128" edge="1">
                    <mxGeometry width="50" height="50" relative="1" as="geometry">
                        <mxPoint x="736.04" y="150" as="sourcePoint"/>
                        <mxPoint x="730" y="480" as="targetPoint"/>
                        <Array as="points">
                            <mxPoint x="730" y="460"/>
                        </Array>
                    </mxGeometry>
                </mxCell>
                <mxCell id="78" value="&lt;b&gt;Choisir&lt;/b&gt;" style="text;html=1;align=center;verticalAlign=middle;resizable=0;points=[];autosize=1;strokeColor=none;fillColor=none;fontSize=18;rotation=90;" parent="1" vertex="1">
                    <mxGeometry x="705" y="260" width="90" height="40" as="geometry"/>
                </mxCell>
                <mxCell id="79" value="&lt;b&gt;n&lt;/b&gt;" style="text;html=1;align=center;verticalAlign=middle;resizable=0;points=[];autosize=1;strokeColor=none;fillColor=none;rotation=60;" parent="1" vertex="1">
                    <mxGeometry x="630" y="450" width="30" height="30" as="geometry"/>
                </mxCell>
                <mxCell id="80" value="&lt;b&gt;n&lt;/b&gt;" style="text;html=1;align=center;verticalAlign=middle;resizable=0;points=[];autosize=1;strokeColor=none;fillColor=none;rotation=55;" parent="1" vertex="1">
                    <mxGeometry x="495" y="280" width="30" height="30" as="geometry"/>
                </mxCell>
                <mxCell id="84" value="&lt;b&gt;n&lt;/b&gt;" style="text;html=1;align=center;verticalAlign=middle;resizable=0;points=[];autosize=1;strokeColor=none;fillColor=none;" parent="1" vertex="1">
                    <mxGeometry x="455" y="235" width="30" height="30" as="geometry"/>
                </mxCell>
                <mxCell id="85" value="&lt;b&gt;n&lt;/b&gt;" style="text;html=1;align=center;verticalAlign=middle;resizable=0;points=[];autosize=1;strokeColor=none;fillColor=none;" parent="1" vertex="1">
                    <mxGeometry x="730" y="450" width="30" height="30" as="geometry"/>
                </mxCell>
                <mxCell id="86" value="&lt;b&gt;n&lt;/b&gt;" style="text;html=1;align=center;verticalAlign=middle;resizable=0;points=[];autosize=1;strokeColor=none;fillColor=none;" parent="1" vertex="1">
                    <mxGeometry x="730" y="135" width="30" height="30" as="geometry"/>
                </mxCell>
                <mxCell id="99" value="" style="endArrow=classic;html=1;exitX=1;exitY=0.5;exitDx=0;exitDy=0;entryX=0.293;entryY=1.1;entryDx=0;entryDy=0;entryPerimeter=0;" parent="1" source="39" edge="1">
                    <mxGeometry relative="1" as="geometry">
                        <mxPoint x="138.98" y="352" as="sourcePoint"/>
                        <mxPoint x="355" y="240" as="targetPoint"/>
                        <Array as="points">
                            <mxPoint x="190" y="240"/>
                            <mxPoint x="280" y="240"/>
                        </Array>
                    </mxGeometry>
                </mxCell>
                <mxCell id="102" value="" style="endArrow=classic;startArrow=classic;html=1;entryX=-0.021;entryY=0.867;entryDx=0;entryDy=0;entryPerimeter=0;exitX=1;exitY=0;exitDx=0;exitDy=0;" parent="1" source="21" target="34" edge="1">
                    <mxGeometry width="50" height="50" relative="1" as="geometry">
                        <mxPoint x="510" y="190" as="sourcePoint"/>
                        <mxPoint x="645.99" y="70.00999999999999" as="targetPoint"/>
                    </mxGeometry>
                </mxCell>
                <mxCell id="105" value="&lt;b&gt;1&lt;/b&gt;" style="text;html=1;align=center;verticalAlign=middle;resizable=0;points=[];autosize=1;strokeColor=none;fillColor=none;" parent="1" vertex="1">
                    <mxGeometry x="615" y="110" width="30" height="30" as="geometry"/>
                </mxCell>
                <mxCell id="106" value="&lt;b&gt;n&lt;/b&gt;" style="text;html=1;align=center;verticalAlign=middle;resizable=0;points=[];autosize=1;strokeColor=none;fillColor=none;" parent="1" vertex="1">
                    <mxGeometry x="485" y="165" width="30" height="30" as="geometry"/>
                </mxCell>
                <mxCell id="107" value="&lt;b&gt;n&lt;/b&gt;" style="text;html=1;align=center;verticalAlign=middle;resizable=0;points=[];autosize=1;strokeColor=none;fillColor=none;" parent="1" vertex="1">
                    <mxGeometry x="145" y="215" width="30" height="30" as="geometry"/>
                </mxCell>
                <mxCell id="108" value="&lt;b&gt;n&lt;/b&gt;" style="text;html=1;align=center;verticalAlign=middle;resizable=0;points=[];autosize=1;strokeColor=none;fillColor=none;" parent="1" vertex="1">
                    <mxGeometry x="325" y="215" width="30" height="30" as="geometry"/>
                </mxCell>
                <mxCell id="109" value="" style="edgeStyle=elbowEdgeStyle;elbow=vertical;endArrow=classic;html=1;curved=0;rounded=0;endSize=8;startSize=8;exitX=0.5;exitY=0;exitDx=0;exitDy=0;" parent="1" source="17" edge="1">
                    <mxGeometry width="50" height="50" relative="1" as="geometry">
                        <mxPoint x="230" y="370" as="sourcePoint"/>
                        <mxPoint x="250" y="240" as="targetPoint"/>
                        <Array as="points">
                            <mxPoint x="210" y="330"/>
                        </Array>
                    </mxGeometry>
                </mxCell>
                <mxCell id="114" value="" style="edgeStyle=elbowEdgeStyle;elbow=vertical;endArrow=classic;html=1;curved=0;rounded=0;endSize=8;startSize=8;exitX=0.436;exitY=-0.075;exitDx=0;exitDy=0;exitPerimeter=0;" parent="1" source="118" edge="1">
                    <mxGeometry width="50" height="50" relative="1" as="geometry">
                        <mxPoint x="235" y="410" as="sourcePoint"/>
                        <mxPoint x="380" y="320" as="targetPoint"/>
                        <Array as="points">
                            <mxPoint x="340" y="370"/>
                            <mxPoint x="310" y="350"/>
                        </Array>
                    </mxGeometry>
                </mxCell>
                <mxCell id="115" value="" style="line;strokeWidth=2;direction=south;html=1;" parent="1" vertex="1">
                    <mxGeometry x="404" y="320" width="10" height="120" as="geometry"/>
                </mxCell>
                <mxCell id="117" value="" style="edgeStyle=elbowEdgeStyle;elbow=vertical;endArrow=classic;html=1;curved=0;rounded=0;endSize=8;startSize=8;exitX=0.667;exitY=-0.012;exitDx=0;exitDy=0;exitPerimeter=0;" parent="1" edge="1">
                    <mxGeometry width="50" height="50" relative="1" as="geometry">
                        <mxPoint x="494.03999999999996" y="569.04" as="sourcePoint"/>
                        <mxPoint x="470" y="320" as="targetPoint"/>
                        <Array as="points">
                            <mxPoint x="500" y="350"/>
                        </Array>
                    </mxGeometry>
                </mxCell>
                <mxCell id="118" value="TéléFilm" style="html=1;align=center;verticalAlign=top;rounded=1;absoluteArcSize=1;arcSize=10;dashed=0;" parent="1" vertex="1">
                    <mxGeometry x="175" y="440" width="140" height="40" as="geometry"/>
                </mxCell>
                <mxCell id="119" value="LongMetrage" style="html=1;align=center;verticalAlign=top;rounded=1;absoluteArcSize=1;arcSize=10;dashed=0;" parent="1" vertex="1">
                    <mxGeometry x="339" y="440" width="140" height="40" as="geometry"/>
                </mxCell>
                <mxCell id="120" value="Série" style="html=1;align=center;verticalAlign=middle;rounded=1;absoluteArcSize=1;arcSize=10;dashed=1;" parent="1" vertex="1">
                    <mxGeometry x="440" y="570" width="140" height="40" as="geometry"/>
                </mxCell>
                <mxCell id="121" value="&lt;b&gt;SérieWeb&lt;/b&gt;" style="shape=umlLifeline;perimeter=lifelinePerimeter;whiteSpace=wrap;html=1;container=1;collapsible=0;recursiveResize=0;outlineConnect=0;rotation=-180;" parent="1" vertex="1">
                    <mxGeometry x="379" y="640" width="100" height="120" as="geometry"/>
                </mxCell>
                <mxCell id="123" value="&lt;b&gt;SérieTV&lt;br&gt;&lt;br&gt;&lt;/b&gt;" style="shape=umlLifeline;perimeter=lifelinePerimeter;whiteSpace=wrap;html=1;container=1;collapsible=0;recursiveResize=0;outlineConnect=0;rotation=-180;" parent="1" vertex="1">
                    <mxGeometry x="540" y="640" width="100" height="120" as="geometry"/>
                </mxCell>
                <mxCell id="124" value="" style="line;strokeWidth=2;html=1;" parent="1" vertex="1">
                    <mxGeometry x="430" y="640" width="160" height="10" as="geometry"/>
                </mxCell>
                <mxCell id="126" value="" style="edgeStyle=none;html=1;" parent="1" source="120" edge="1">
                    <mxGeometry relative="1" as="geometry">
                        <mxPoint x="510" y="640" as="targetPoint"/>
                        <Array as="points">
                            <mxPoint x="510" y="640"/>
                            <mxPoint x="510" y="650"/>
                        </Array>
                    </mxGeometry>
                </mxCell>
            </root>
        </mxGraphModel>
    </diagram>
</mxfile>